<svg xmlns="http://www.w3.org/2000/svg" data-name="Layer 1" viewBox="0 0 64 80" x="0px" y="0px"><title>car</title><path d="M14.67,30.56A1,1,0,0,1,14,28.78L38.81,9.12a1,1,0,0,1,1.25,1.57L15.29,30.34A1,1,0,0,1,14.67,30.56Z"/><path d="M34.34,50.75a1,1,0,0,1-1-1h0a1,1,0,0,1,.21-.62L53.13,24a1,1,0,0,1,1.4-.18,1,1,0,0,1,.17,1.41L35.16,50.31A1,1,0,0,1,34.34,50.75Z"/><path d="M18.44,63A17.45,17.45,0,1,1,35.89,45.56,17.46,17.46,0,0,1,18.44,63Zm0-32.89A15.45,15.45,0,1,0,33.89,45.56,15.46,15.46,0,0,0,18.44,30.11Zm0,20.36a4.92,4.92,0,1,1,4.92-4.91A4.91,4.91,0,0,1,18.44,50.47Zm0-7.83a2.92,2.92,0,1,0,2.92,2.92A2.91,2.91,0,0,0,18.44,42.64Z"/><path d="M18.44,54.86a9.31,9.31,0,1,1,9.31-9.3A9.31,9.31,0,0,1,18.44,54.86Zm0-16.61a7.31,7.31,0,1,0,7.31,7.31A7.32,7.32,0,0,0,18.44,38.25Z"/><path d="M18.44,35.46a2.31,2.31,0,1,1,2.31-2.31A2.31,2.31,0,0,1,18.44,35.46Zm0-2.62a.31.31,0,0,0,0,.62.31.31,0,0,0,0-.62Z"/><path d="M18.44,60.27A2.31,2.31,0,1,1,20.75,58,2.31,2.31,0,0,1,18.44,60.27Zm0-2.61a.29.29,0,0,0-.3.3.3.3,0,0,0,.3.31.31.31,0,0,0,.31-.31A.3.3,0,0,0,18.44,57.66Z"/><path d="M30.85,47.86a2.31,2.31,0,1,1,2.31-2.3A2.31,2.31,0,0,1,30.85,47.86Zm0-2.61a.31.31,0,1,0,.31.31A.31.31,0,0,0,30.85,45.25Z"/><path d="M6,47.86a2.31,2.31,0,1,1,2.3-2.3A2.3,2.3,0,0,1,6,47.86Zm0-2.61a.31.31,0,1,0,0,.61.31.31,0,0,0,0-.61Z"/><path d="M27.21,39.09a2.29,2.29,0,0,1-1.63-.68,2.32,2.32,0,0,1,0-3.26,2.37,2.37,0,0,1,3.27,0,2.33,2.33,0,0,1,.67,1.63,2.32,2.32,0,0,1-2.31,2.31Zm0-2.61a.27.27,0,0,0-.21.09A.3.3,0,0,0,27,37a.26.26,0,0,0,.43,0,.29.29,0,0,0,.09-.22.27.27,0,0,0-.09-.21h0A.28.28,0,0,0,27.21,36.48Z"/><path d="M9.67,56.63A2.3,2.3,0,0,1,8,52.7a2.36,2.36,0,0,1,3.26,0A2.26,2.26,0,0,1,12,54.33a2.3,2.3,0,0,1-2.31,2.3Zm0-2.61a.33.33,0,0,0-.22.09.3.3,0,0,0,0,.43.27.27,0,0,0,.44,0,.31.31,0,0,0,0-.44h0A.33.33,0,0,0,9.67,54Z"/><path d="M27.21,56.63a2.3,2.3,0,0,1-1.63-3.93,2.37,2.37,0,0,1,3.27,0,2.29,2.29,0,0,1,.67,1.63A2.33,2.33,0,0,1,28.85,56h0A2.33,2.33,0,0,1,27.21,56.63Zm0-2.61a.31.31,0,0,0-.21.09.3.3,0,0,0,0,.43.26.26,0,0,0,.43,0h0a.26.26,0,0,0,.09-.21.29.29,0,0,0-.09-.22A.32.32,0,0,0,27.21,54Z"/><path d="M9.67,39.09A2.26,2.26,0,0,1,8,38.41a2.31,2.31,0,0,1,0-3.26,2.36,2.36,0,0,1,3.26,0A2.29,2.29,0,0,1,12,36.78a2.26,2.26,0,0,1-.68,1.63h0A2.26,2.26,0,0,1,9.67,39.09Zm0-2.61a.29.29,0,0,0-.22.09.3.3,0,0,0,0,.43.27.27,0,0,0,.44,0h0a.33.33,0,0,0,.09-.22.31.31,0,0,0-.09-.21A.29.29,0,0,0,9.67,36.48Z"/><path d="M50.42,26.17A12.59,12.59,0,1,1,63,13.58,12.6,12.6,0,0,1,50.42,26.17ZM50.42,3A10.59,10.59,0,1,0,61,13.58,10.59,10.59,0,0,0,50.42,3Z"/><path d="M50.42,18.87a5.29,5.29,0,1,1,5.29-5.29A5.29,5.29,0,0,1,50.42,18.87Zm0-8.57a3.29,3.29,0,1,0,3.29,3.28A3.29,3.29,0,0,0,50.42,10.3Z"/><text x="0" y="79" fill="#000000" font-size="5px" font-weight="bold" font-family="'Helvetica Neue', Helvetica, Arial-Unicode, Arial, Sans-serif">Created by Vector Place</text><text x="0" y="84" fill="#000000" font-size="5px" font-weight="bold" font-family="'Helvetica Neue', Helvetica, Arial-Unicode, Arial, Sans-serif">from the Noun Project</text></svg>