<svg xmlns="http://www.w3.org/2000/svg" xmlns:xlink="http://www.w3.org/1999/xlink" version="1.1" x="0px" y="0px" viewBox="0 0 320 620" style="enable-background:new 0 0 320 496;" xml:space="preserve"><g><path d="M301.276,184.31l-53.834-59.217c-6.17-6.786-14.485-11.209-23.442-12.611V24c0-13.233-10.767-24-24-24H72   C58.767,0,48,10.767,48,24v89.065c-9.781,2.285-18.446,8.184-24.156,16.748l-11.751,17.627C4.182,159.306,0,173.116,0,187.378V432   c0,35.29,28.71,64,64,64h192c35.29,0,64-28.71,64-64V232.743C320,214.794,313.351,197.594,301.276,184.31z M80,80H64V48h16V80z    M208,96v16H64V96H208z M144,80h-16V48h16V80z M208,80h-16V48h16V80z M72,16h128c4.411,0,8,3.589,8,8v8h-32v48h-16V32h-48v48H96V32   H64v-8C64,19.589,67.589,16,72,16z M304,432c0,26.467-21.533,48-48,48H64c-26.467,0-48-21.533-48-48V187.378   c0-11.093,3.252-21.834,9.405-31.063l11.751-17.627C41.618,131.995,49.084,128,57.126,128h160.718   c6.747,0,13.221,2.863,17.759,7.856l53.834,59.216c9.392,10.332,14.563,23.71,14.563,37.671V432z"/><path d="M221.384,144H52.845l-14.127,21.19C34.323,171.782,32,179.455,32,187.378V432c0,17.645,14.355,32,32,32h192   c17.645,0,32-14.355,32-32V232.743c0-9.972-3.693-19.527-10.401-26.908L221.384,144z M48,432V187.378   c0-4.754,1.394-9.357,4.03-13.313L61.407,160h152.898l51.453,56.598c4.024,4.429,6.241,10.162,6.241,16.146v104.58l-87.257,15.864   c-26.193,4.763-50.529,16.661-70.375,34.407C96.014,404.006,82.216,424.797,74.192,448H64C55.178,448,48,440.822,48,432z M256,448   H91.246c16.206-41.167,52.251-71.05,96.359-79.07L272,353.586V432C272,440.822,264.822,448,256,448z"/><rect x="192" y="416" width="64" height="16"/><rect x="192" y="384" width="64" height="16"/><path d="M90.343,274.343l11.314,11.314L123.314,264h14.063c2.414,6.807,7.817,12.209,14.624,14.624v14.063l-21.657,21.656   l11.314,11.314L152,315.314v20.687h16v-20.687l10.343,10.343l11.314-11.314L168,292.686v-14.063   c6.807-2.414,12.209-7.817,14.624-14.624h14.063l21.656,21.657l11.314-11.314L219.314,264H240v-16h-20.686l10.343-10.343   l-11.314-11.314L196.686,248h-14.063c-2.414-6.807-7.817-12.209-14.624-14.624v-14.063l21.657-21.656l-11.314-11.314L168,196.686   V176h-16v20.686l-10.343-10.343l-11.314,11.314L152,219.314v14.063c-6.807,2.414-12.209,7.817-14.624,14.624h-14.063   l-21.656-21.657l-11.314,11.314L100.686,248H80v16h20.686L90.343,274.343z M160,248c4.411,0,8,3.589,8,8s-3.589,8-8,8s-8-3.589-8-8   S155.589,248,160,248z"/></g><text x="0" y="511" fill="#000000" font-size="5px" font-weight="bold" font-family="'Helvetica Neue', Helvetica, Arial-Unicode, Arial, Sans-serif">Created by Eucalyp</text><text x="0" y="516" fill="#000000" font-size="5px" font-weight="bold" font-family="'Helvetica Neue', Helvetica, Arial-Unicode, Arial, Sans-serif">from the Noun Project</text></svg>