<?xml version="1.0" encoding="utf-8"?>
<!-- Svg Vector Icons : http://www.onlinewebfonts.com/icon -->
<!DOCTYPE svg PUBLIC "-//W3C//DTD SVG 1.1//EN" "http://www.w3.org/Graphics/SVG/1.1/DTD/svg11.dtd">
<svg version="1.1" xmlns="http://www.w3.org/2000/svg" xmlns:xlink="http://www.w3.org/1999/xlink" x="0px" y="0px" viewBox="0 0 256 256" enable-background="new 0 0 256 256" xml:space="preserve">
<metadata> Svg Vector Icons : http://www.onlinewebfonts.com/icon </metadata>
<g><g><g><path fill="#000000" d="M70.4,30.7c-4.9,1.4-9.3,5.1-11.4,9.7c-1.3,2.9-2,6.8-2,11.8v3.6H43.2c-8.3,0-14.7,0.2-16.2,0.5c-8.1,1.7-14.9,8.8-16.5,17c-0.6,3.4-0.6,131.7,0,135.1c1.6,8.4,8.6,15.4,17,17c3.4,0.6,197.6,0.6,201,0c6-1.2,12.3-5.8,14.9-11c2.7-5.3,2.6-2.4,2.6-73.4c0-41.5-0.2-66.2-0.5-67.8c-1.5-8-7.8-14.7-15.8-16.8c-1.8-0.5-6-0.6-16.8-0.6h-14.3l-0.2-6.4c-0.1-5.7-0.3-6.6-1.3-8.9c-3.5-7.4-12-11.8-19.7-10.2c-5.7,1.2-10.2,4.7-12.6,9.6c-1.5,3-1.5,3.3-1.7,9.4l-0.2,6.4h-35H93v-5.3c0-6-0.9-9.5-3.2-13C85.7,31.7,77.4,28.8,70.4,30.7z M79.7,39.8c1.3,0.7,2.5,1.8,3.4,3.3c1.3,2.1,1.4,2.6,1.6,7.5l0.1,5.2h-9.5h-9.5v-5c0-6.7,1.2-9.1,5.3-11.3C73.2,38.4,77.2,38.5,79.7,39.8z M185.2,39.7c2,1,3.8,3.1,4.6,5.5c0.3,0.9,0.5,3.6,0.5,6.1v4.6h-9.5h-9.4v-4.6c0-4.9,0.5-6.9,2.2-9.2C175.9,38.9,181.3,37.8,185.2,39.7z M229.4,65.3c2.9,1.3,4.8,3.1,6.3,5.6c1.1,1.8,1.3,2.8,1.4,6.6l0.2,4.5H128.1H18.8v-3.6c0-1.9,0.2-4.3,0.5-5.3c1.1-3.9,5.5-7.8,9.7-8.6c1.2-0.2,45.4-0.4,100.2-0.3l98.2,0L229.4,65.3z M237.2,148.6c0,64.1,0.1,60.5-2.8,64.1c-0.8,0.9-2.4,2.3-3.5,3l-2.2,1.2L128.6,217c-96.6,0.1-100.2,0.1-102.1-0.7c-2.7-1.2-4.7-3-6.2-5.6l-1.2-2.1l-0.1-59.1l-0.1-59.1H128h109.2L237.2,148.6L237.2,148.6z"/><path fill="#000000" d="M118.4,133.2L98,159.3l11.1,0.1c6.1,0,11.1,0.3,11.1,0.5c0,0.2-2.1,9.4-4.6,20.4c-2.5,11-4.6,20.2-4.6,20.5c0,0.2,8.6-12.4,19.1-28.2c10.5-15.8,19.1-28.8,19.1-28.9s-4.1-0.2-9-0.2s-9,0-9-0.1c0,0,1.8-8.2,3.9-18.1c2.1-9.9,3.8-18,3.7-18.1C138.8,107,129.6,118.7,118.4,133.2z"/></g></g></g>
</svg>