<svg xmlns="http://www.w3.org/2000/svg" fill="none" viewBox="0 0 128 160" x="0px" y="0px"><path fill="#000" fill-rule="evenodd" d="M92 74.154C92 80.144 87.075 85 81 85s-11-4.856-11-10.846c0-3.72 4.243-9.822 7.458-13.912a4.467 4.467 0 0 1 7.084 0C87.757 64.332 92 70.433 92 74.154Zm-8.008.206C83.882 75.747 82.68 77 81 77s-2.882-1.253-2.992-2.64c.295-1.055.873-2.048 1.422-2.985A41.79 41.79 0 0 1 81 68.91a41.79 41.79 0 0 1 1.57 2.464c.549.937 1.127 1.93 1.422 2.985Z" clip-rule="evenodd"/><path fill="#000" fill-rule="evenodd" d="M45 27.834c0 1.382-.57 2.7-1.579 3.646a1660.01 1660.01 0 0 1-5.708 5.329A15 15 0 0 0 33 47.726V109a5 5 0 0 0 5 5h42a5 5 0 0 0 5-5V96.682C96.906 94.767 106 84.446 106 72c0-12.448-9.097-22.77-21.006-24.683a15 15 0 0 0-4.707-10.508 16038.8 16038.8 0 0 1-5.706-5.34A4.994 4.994 0 0 1 73 27.82V19a5 5 0 0 0-5-5H50a5 5 0 0 0-5 5v8.834ZM56 72c0 12.446 9.094 22.767 21 24.682V106H41V47.726a7 7 0 0 1 2.2-5.095L49.174 37h19.65l5.976 5.631a7 7 0 0 1 2.187 4.69C65.088 49.24 56 59.558 56 72Zm9-43v-7H53v7h12Zm16 60c9.389 0 17-7.611 17-17s-7.611-17-17-17-17 7.611-17 17 7.611 17 17 17Z" clip-rule="evenodd"/><text x="0" y="143" fill="#000000" font-size="5px" font-weight="bold" font-family="'Helvetica Neue', Helvetica, Arial-Unicode, Arial, Sans-serif">Created by Marz Gallery</text><text x="0" y="148" fill="#000000" font-size="5px" font-weight="bold" font-family="'Helvetica Neue', Helvetica, Arial-Unicode, Arial, Sans-serif">from the Noun Project</text></svg>