<svg xmlns="http://www.w3.org/2000/svg" data-name="Layer 1" viewBox="0 0 95 118.75" x="0px" y="0px"><path d="M92.97,30.442a12.344,12.344,0,0,1-8.564-4.365V18.4a1.1,1.1,0,0,0-.323-.781L73.87,7.4a1.1,1.1,0,0,0-.78-.323h-41.6a1.1,1.1,0,0,0-1.1,1.1v3.459h-3.81a1.1,1.1,0,0,0-1.1,1.1V48.177H19.177a7.057,7.057,0,0,0-6.333,4.211L9.669,59.1l-2.928-.94a2.4,2.4,0,0,0-1.918.2L2.309,59.722a2.49,2.49,0,0,0-.42,4.1l1.689,1.424a2.578,2.578,0,0,0,.78.458L2,68.074a3.09,3.09,0,0,0-.409,3.545l1.28,2.617L1.382,75.808a1.1,1.1,0,0,0-.291.915l.736,5.128a1.1,1.1,0,0,0,.881.927L3,82.835v2.548a2.542,2.542,0,0,0,2.539,2.539H13.57a2.542,2.542,0,0,0,2.538-2.539v-1.15h28.7v1.15a2.541,2.541,0,0,0,2.538,2.539h8.028a2.542,2.542,0,0,0,2.539-2.539V82.835l.294-.057a1.1,1.1,0,0,0,.882-.927l.464-3.235H78.389a1.1,1.1,0,0,0,1.1-1.1V74.053H83.3a1.1,1.1,0,0,0,1.1-1.1V52.541a14.608,14.608,0,0,0,9.519-8.63,1.1,1.1,0,0,0,.075-.4V31.543A1.1,1.1,0,0,0,92.97,30.442ZM32.592,9.285H71.986V18.4a1.1,1.1,0,0,0,1.1,1.1H82.2v6.579a12.344,12.344,0,0,1-8.564,4.365,1.1,1.1,0,0,0-1.03,1.1v4.2H48.087a1.1,1.1,0,1,0,0,2.207H72.605v4.876h-2.45a1.1,1.1,0,0,0,0,2.208h3.019a14.345,14.345,0,0,0,4.173,5.05,1.1,1.1,0,0,0-.594-.175H46.222a6.745,6.745,0,0,0-4.484-1.728H32.592ZM14.839,53.332a4.871,4.871,0,0,1,4.338-2.947H41.738a4.872,4.872,0,0,1,4.338,2.947L50.1,61.826a151.589,151.589,0,0,1-39.271-.01ZM8.116,65.056a4.975,4.975,0,0,1,1.442-1.178,153.806,153.806,0,0,0,41.8,0A5.02,5.02,0,0,1,52.8,65.056l3.388,3.4h-5.8a1.01,1.01,0,0,0-.122.007,7.166,7.166,0,0,0-3,1.092,2.89,2.89,0,0,1-1.422.554H15.1a2.88,2.88,0,0,1-1.436-.554,7.165,7.165,0,0,0-3.005-1.092.987.987,0,0,0-.122-.007h-5.8Zm6.376,16.97c.253-.1.527-.2.827-.3a7.567,7.567,0,0,0,3.2-1.78l1.87-2.062A3.218,3.218,0,0,1,22.876,76.8H38.039a3.218,3.218,0,0,1,2.484,1.076L42.4,79.948a7.556,7.556,0,0,0,3.2,1.773c.3.106.574.2.826.3Zm42.523-1.265-6.5,1.265h-.524a6.474,6.474,0,0,0-3.661-2.386,5.824,5.824,0,0,1-2.3-1.182L42.158,76.4a5.413,5.413,0,0,0-4.119-1.8H22.876a5.417,5.417,0,0,0-4.12,1.8l-1.863,2.055a5.808,5.808,0,0,1-2.31,1.189,6.48,6.48,0,0,0-3.662,2.386H10.4L3.9,80.761l-.549-3.823,1.321-1.4h5.662a1.1,1.1,0,0,0,.78-.322l3.037-3.028a3.888,3.888,0,0,0,.93.129H45.848a3.8,3.8,0,0,0,.917-.128L49.8,75.22a1.1,1.1,0,0,0,.779.322h5.663l1.32,1.4ZM82.2,71.845H59.214l.111-.226a3.09,3.09,0,0,0-.408-3.545L56.556,65.7a2.571,2.571,0,0,0,.781-.458l1.689-1.424a2.49,2.49,0,0,0-.42-4.1l-.969-.526h.755a1.1,1.1,0,1,0,0-2.207H50.248l-2.177-4.6c-.045-.094-.094-.184-.141-.275H76.753a1.1,1.1,0,0,0,.725-1.934A15.079,15.079,0,0,0,82.2,52.541Zm7.207-34.6-5.883,5.92a1.1,1.1,0,0,1-.781.325h0a1.1,1.1,0,0,1-.78-.323L78.889,40.1a1.1,1.1,0,0,1,1.561-1.56l2.288,2.287,5.1-5.134a1.1,1.1,0,1,1,1.566,1.556ZM36.935,22.706a1.1,1.1,0,0,1,1.1-1.1H51.663a1.1,1.1,0,0,1,0,2.208H38.038A1.1,1.1,0,0,1,36.935,22.706Zm0,5.81a1.1,1.1,0,0,1,1.1-1.1H58.474a1.1,1.1,0,1,1,0,2.208H38.038A1.1,1.1,0,0,1,36.935,28.516Zm0,8.326a1.1,1.1,0,0,1,1.1-1.1h6.775a1.1,1.1,0,1,1,0,2.207H38.038A1.1,1.1,0,0,1,36.934,36.842ZM66.665,45.03H38.038a1.1,1.1,0,0,1,0-2.208H66.665a1.1,1.1,0,0,1,0,2.208ZM77.857,58.092a1.1,1.1,0,0,1-1.1,1.1H61.7a1.1,1.1,0,1,1,0-2.207H76.753A1.1,1.1,0,0,1,77.857,58.092Z"/><text x="0" y="110" fill="#000000" font-size="5px" font-weight="bold" font-family="'Helvetica Neue', Helvetica, Arial-Unicode, Arial, Sans-serif">Created by Sunardi</text><text x="0" y="115" fill="#000000" font-size="5px" font-weight="bold" font-family="'Helvetica Neue', Helvetica, Arial-Unicode, Arial, Sans-serif">from the Noun Project</text></svg>