<svg xmlns="http://www.w3.org/2000/svg" xmlns:xlink="http://www.w3.org/1999/xlink" version="1.1" x="0px" y="0px" viewBox="0 0 496 620" style="enable-background:new 0 0 496 496;" xml:space="preserve"><g><path d="M496,80V24c0-13.233-10.767-24-24-24H40C26.767,0,16,10.767,16,24v56c0,8.822,7.178,16,16,16v107.147   C11.238,215.632,0,231.215,0,248v176c0,20.448,16.666,39.116,46.928,52.565C75.126,489.098,112.441,496,152,496   s76.874-6.902,105.072-19.435C287.334,463.116,304,444.448,304,424V304h168c13.233,0,24-10.767,24-24v-56c0-8.822-7.178-16-16-16   V96C488.822,96,496,88.822,496,80z M32,24c0-4.411,3.589-8,8-8h432c4.411,0,8,3.589,8,8v56h-16V32H48v48H32V24z M384,256v-96h32v96   H384z M48,194.98V160h32v24.318C68.463,187.182,57.705,190.75,48,194.98z M96,160h32v16.877c-11.022,0.799-21.745,2.138-32,4.004   V160z M128,48v96H96V48H128z M368,48v96h-32V48H368z M320,144h-32V48h32V144z M272,144h-32V48h32V144z M224,144h-32V48h32V144z    M176,144h-32V48h32V144z M144,160h32v16.877c-7.869-0.57-15.883-0.877-24-0.877c-2.678,0-5.344,0.038-8,0.101V160z M192,160h32   v24.318c-10.129-2.515-20.855-4.48-32-5.868V160z M240,160h32v43.147c-4.531-2.724-9.507-5.303-14.928-7.713   c-5.374-2.388-11.083-4.569-17.072-6.54V160z M304,248c0-11.774-5.536-22.954-16-32.891V160h32v96h-16V248z M336,160h32v96h-32V160   z M384,144V48h32v96H384z M64,80V48h16v96H48V96C56.822,96,64,88.822,64,80z M53.426,210.056C79.623,198.412,114.631,192,152,192   s72.377,6.412,98.574,18.056C274.359,220.626,288,234.457,288,248s-13.641,27.374-37.426,37.944   C224.377,297.588,189.369,304,152,304s-72.377-6.412-98.574-18.056C29.641,275.374,16,261.543,16,248   S29.641,220.626,53.426,210.056z M240,434.184c-9.799,3.55-20.562,6.444-32,8.659V315.119c11.304-2.057,22.045-4.739,32-8.014   V434.184z M64,307.105c9.955,3.276,20.696,5.958,32,8.014v127.724c-11.438-2.215-22.201-5.11-32-8.659V307.105z M112,317.55   c10.361,1.29,21.07,2.091,32,2.35v127.993c-10.971-0.271-21.694-1.096-32-2.449V317.55z M160,319.899   c10.93-0.259,21.639-1.06,32-2.35v127.893c-10.306,1.353-21.029,2.178-32,2.449V319.899z M16,280.891   c7.71,7.321,18.09,13.969,30.928,19.674c0.35,0.156,0.719,0.3,1.072,0.454v126.364C27.583,417.193,16,404.476,16,392V280.891z    M250.574,461.944C224.377,473.588,189.369,480,152,480s-72.377-6.412-98.574-18.056c-23.248-10.332-36.796-23.778-37.397-37.026   c7.707,7.311,18.077,13.948,30.899,19.647C75.126,457.098,112.441,464,152,464s76.874-6.902,105.072-19.435   c12.822-5.698,23.192-12.336,30.899-19.647C287.37,438.167,273.822,451.613,250.574,461.944z M256,427.384V301.02   c0.353-0.154,0.722-0.298,1.072-0.454c12.838-5.705,23.218-12.353,30.928-19.674V392C288,404.476,276.417,417.193,256,427.384z    M480,280c0,4.411-3.589,8-8,8H304v-16h160v-48h16V280z M448,224v32h-16v-96h32v48C455.178,208,448,215.178,448,224z M464,144h-32   V48h16v32c0,8.822,7.178,16,16,16V144z"/><path d="M65.997,273.847C89.509,282.974,120.052,288,152,288s62.491-5.026,86.003-14.153c23.996-9.316,31.087-19.072,32.688-21.841   l2.317-4.006l-2.317-4.006c-1.602-2.769-8.692-12.524-32.688-21.841C214.491,213.026,183.948,208,152,208   s-62.491,5.026-86.003,14.153c-23.996,9.316-31.087,19.072-32.688,21.841L30.991,248l2.317,4.006   C34.91,254.774,42.001,264.53,65.997,273.847z M71.788,237.069C93.497,228.642,121.984,224,152,224s58.503,4.642,80.212,13.069   c10.6,4.114,16.912,8.108,20.488,10.93c-3.578,2.824-9.891,6.818-20.488,10.932C210.503,267.358,182.016,272,152,272   s-58.503-4.642-80.212-13.069c-10.6-4.114-16.912-8.108-20.488-10.93C54.878,245.177,61.19,241.183,71.788,237.069z"/></g><text x="0" y="511" fill="#000000" font-size="5px" font-weight="bold" font-family="'Helvetica Neue', Helvetica, Arial-Unicode, Arial, Sans-serif">Created by Eucalyp</text><text x="0" y="516" fill="#000000" font-size="5px" font-weight="bold" font-family="'Helvetica Neue', Helvetica, Arial-Unicode, Arial, Sans-serif">from the Noun Project</text></svg>