<svg xmlns="http://www.w3.org/2000/svg" viewBox="0 0 96 120" x="0px" y="0px"><title>Disc Break</title><g data-name="Disc Break"><path d="M61.09,34.91a24.84,24.84,0,1,0,0,35.13A24.86,24.86,0,0,0,61.09,34.91ZM59.68,68.63a22.85,22.85,0,1,1,0-32.31A22.89,22.89,0,0,1,59.68,68.63Z"/><path d="M51.91,44.09a11.86,11.86,0,1,0,0,16.77A11.85,11.85,0,0,0,51.91,44.09ZM36.55,59.45a9.86,9.86,0,1,1,14,0A9.87,9.87,0,0,1,36.55,59.45Z"/><path d="M48.74,47.26a7.38,7.38,0,1,0,0,10.43A7.37,7.37,0,0,0,48.74,47.26Zm-1.41,9a5.37,5.37,0,1,1,0-7.59A5.36,5.36,0,0,1,47.33,56.27Z"/><path d="M45.52,0a2.93,2.93,0,0,0-3,2.94V9A43.55,43.55,0,1,0,87,53.48h6a2.93,2.93,0,0,0,2.93-3A52.47,52.47,0,0,0,45.52,0ZM27.61,90.87A41.55,41.55,0,0,1,42.52,11V17A2.91,2.91,0,0,0,45.28,20a32.44,32.44,0,0,1,16.08,5.27,2.44,2.44,0,0,0,3.09-.33l1.21-1.21a4.7,4.7,0,0,1,6.65,6.65L71.1,31.55a2.45,2.45,0,0,0-.33,3.09A32.44,32.44,0,0,1,76,50.73,2.91,2.91,0,0,0,79,53.48H85A41.56,41.56,0,0,1,27.61,90.87ZM93.07,51.48H79a.91.91,0,0,1-.92-.86,34.52,34.52,0,0,0-5.6-17.08.42.42,0,0,1,0-.55c.53-.52.85-.85,1.23-1.24a6.61,6.61,0,0,0,2-4.73,6.7,6.7,0,0,0-11.43-4.74c-.36.34-.93.9-1.24,1.23a.42.42,0,0,1-.55,0A34.51,34.51,0,0,0,45.38,18a.93.93,0,0,1-.86-.93V2.94A.94.94,0,0,1,45.45,2,50.47,50.47,0,0,1,94,50.54.94.94,0,0,1,93.07,51.48Z"/><path d="M31.57,60.39a2,2,0,0,0-2.8,0l-1.33,1.33a2,2,0,0,0,0,2.8l4,4a2,2,0,0,0,1.4.58,1.93,1.93,0,0,0,1.4-.58l1.33-1.32a2,2,0,0,0,0-2.8Zm1.31,6.73-4-4,1.3-1.33,4,4Z"/><path d="M55.48,44.55h0a2,2,0,0,0,2.8,0l1.33-1.33a2,2,0,0,0,0-2.8l-4-4a2,2,0,0,0-2.8,0l-1.32,1.33a2,2,0,0,0,0,2.8Zm-1.32-6.74,4,4-1.31,1.32-4-4Z"/><path d="M28.77,44.56a2,2,0,0,0,2.8,0l4-4a2,2,0,0,0,0-2.8l-1.33-1.33a2,2,0,0,0-2.8,0l-4,4h0a2,2,0,0,0,0,2.8Zm4.1-6.75,1.32,1.29-4,4-1.32-1.31Z"/><path d="M58.28,60.39a2,2,0,0,0-2.8,0c-4.68,4.68-3.93,4-4,4a2,2,0,0,0,0,2.8l1.32,1.32a2,2,0,0,0,2.8,0l4-4a2,2,0,0,0,0-2.79Zm-4.09,6.75-1.31-1.31,4-4,1.32,1.3Z"/><path d="M22.13,72.45l-.31.32a1,1,0,0,0,1.41,1.41l.32-.32a1,1,0,0,0,0-1.41A1,1,0,0,0,22.13,72.45Z"/><path d="M17.67,76.92l-.32.31a1,1,0,0,0,0,1.41,1,1,0,0,0,1.42,0l.31-.32a1,1,0,0,0-1.41-1.41Z"/><path d="M33.28,78.8a1,1,0,0,0-1.3.57l-.16.42a1,1,0,0,0,.93,1.36,1,1,0,0,0,.93-.64l.17-.41A1,1,0,0,0,33.28,78.8Z"/><path d="M31,84.69a1,1,0,0,0-1.3.56l-.16.42a1,1,0,0,0,1.86.73l.17-.42A1,1,0,0,0,31,84.69Z"/><path d="M55.47,79.19a1,1,0,0,0-1.85.76c.12.29.3,1,1.09,1a1,1,0,0,0,.93-1.38Z"/><path d="M57.85,85A1,1,0,0,0,56,85.8c.12.29.3,1,1.09,1A1,1,0,0,0,58,85.46Z"/><path d="M71.81,61.6l-.42-.15a1,1,0,0,0-1.28.6,1,1,0,0,0,.6,1.28l.42.15a1,1,0,0,0,.68-1.88Z"/><path d="M77.75,63.74l-.42-.15a1,1,0,0,0-.68,1.89l.42.15a1,1,0,0,0,.68-1.89Z"/><path d="M69.71,41.86a1,1,0,0,0,1.31.55l.41-.17a1,1,0,0,0-.75-1.85l-.41.17A1,1,0,0,0,69.71,41.86Z"/><path d="M17.38,63.17a1,1,0,0,0-1.31-.55l-.41.17A1,1,0,0,0,16,64.72a1.9,1.9,0,0,0,.79-.25A1,1,0,0,0,17.38,63.17Z"/><path d="M10.23,65l-.42.17A1,1,0,0,0,10.57,67l.41-.17A1,1,0,1,0,10.23,65Z"/><path d="M15.72,42a2,2,0,0,0,.8.25,1,1,0,0,0,.38-1.93l-.41-.17A1,1,0,0,0,15.72,42Z"/><path d="M11.07,37.89l-.41-.17a1,1,0,0,0-1.31.53,1,1,0,0,0,.54,1.31l.41.17a1,1,0,1,0,.77-1.84Z"/><path d="M31.59,25.74A1,1,0,0,0,33.45,25l-.17-.41a1,1,0,0,0-1.86.75Z"/><path d="M29.22,19.89a1,1,0,1,0,1.85-.75l-.17-.42a1,1,0,1,0-1.85.76Z"/><path d="M53.44,26a1,1,0,0,0,1.29-.58l.16-.42a1,1,0,1,0-1.87-.7l-.16.41A1,1,0,0,0,53.44,26Z"/><path d="M64.92,72.45a1,1,0,0,0-1.41,1.41c.34.34.55.61,1,.61a1,1,0,0,0,.71-1.7Z"/><path d="M69.39,76.92A1,1,0,0,0,68,78.33c.34.34.55.61,1,.61a1,1,0,0,0,.7-1.71Z"/><path d="M64.21,32.78a1.43,1.43,0,0,0,1-.6,1,1,0,1,0-1.42-1.42l-.31.32A1,1,0,0,0,64.21,32.78Z"/><path d="M68.68,28.32a1.39,1.39,0,0,0,1-.61,1,1,0,0,0,0-1.41,1,1,0,0,0-1.41,0l-.32.31A1,1,0,0,0,68.68,28.32Z"/><path d="M22.13,32.49a1,1,0,0,0,1.42,0,1,1,0,0,0,0-1.41l-.32-.32a1,1,0,0,0-1.41,1.41Z"/><path d="M17.67,28a1,1,0,0,0,1.41,0,1,1,0,0,0,0-1.42l-.31-.31a1,1,0,0,0-1.42,0,1,1,0,0,0,0,1.41Z"/><path d="M14.27,51.47h-.44a1,1,0,1,0,0,2h.44a1,1,0,0,0,0-2Z"/><path d="M8,51.47H7.51a1,1,0,1,0,0,2H8a1,1,0,1,0,0-2Z"/><path d="M43.53,80.73a1,1,0,0,0-1,1v.44a1,1,0,0,0,2,0v-.44A1,1,0,0,0,43.53,80.73Z"/><path d="M43.53,87a1,1,0,0,0-1,1v.45a1,1,0,0,0,2,0V88A1,1,0,0,0,43.53,87Z"/><path d="M73.23,51.47h-.45a1,1,0,0,0,0,2h.45a1,1,0,0,0,0-2Z"/><path d="M43.53,24.21a1,1,0,0,0,1-1v-.44a1,1,0,1,0-2,0v.44A1,1,0,0,0,43.53,24.21Z"/><path d="M48.36,7.55a3.49,3.49,0,1,0,6,2.47A3.5,3.5,0,0,0,48.36,7.55Zm4,2.47a1.49,1.49,0,1,1-1.49-1.49A1.5,1.5,0,0,1,52.32,10Z"/><path d="M84.86,48.48a3.49,3.49,0,1,0-1.35-5.77A3.5,3.5,0,0,0,84.86,48.48Zm.07-4.36a1.49,1.49,0,1,1,0,2.11A1.49,1.49,0,0,1,84.93,44.12Z"/></g><text x="0" y="111" fill="#000000" font-size="5px" font-weight="bold" font-family="'Helvetica Neue', Helvetica, Arial-Unicode, Arial, Sans-serif">Created by tezar tantular</text><text x="0" y="116" fill="#000000" font-size="5px" font-weight="bold" font-family="'Helvetica Neue', Helvetica, Arial-Unicode, Arial, Sans-serif">from the Noun Project</text></svg>