<svg xmlns="http://www.w3.org/2000/svg" viewBox="0 0 64 80" x="0px" y="0px"><g><g><path d="M53,6h-12v-1c0-.552-.447-1-1-1h-3.101c-.465-2.279-2.484-4-4.899-4s-4.434,1.721-4.899,4h-3.101c-.553,0-1,.448-1,1v1H11c-2.206,0-4,1.794-4,4V60c0,2.206,1.794,4,4,4H53c2.206,0,4-1.794,4-4V10c0-2.206-1.794-4-4-4ZM32,2c1.304,0,2.416,.836,2.829,2h-5.658c.413-1.164,1.525-2,2.829-2Zm-7,4h14v6h-14V6Zm30,54c0,1.103-.897,2-2,2H11c-1.103,0-2-.897-2-2V10c0-1.103,.897-2,2-2h12v5c0,.552,.447,1,1,1h16c.553,0,1-.448,1-1v-5h12c1.103,0,2,.897,2,2V60Z"/><path d="M48,10h-5c-.553,0-1,.448-1,1s.447,1,1,1h5c1.654,0,3,1.346,3,3V55c0,1.654-1.346,3-3,3H16c-1.654,0-3-1.346-3-3V15c0-1.654,1.346-3,3-3h5c.553,0,1-.448,1-1s-.447-1-1-1h-5c-2.757,0-5,2.243-5,5V55c0,2.757,2.243,5,5,5H48c2.757,0,5-2.243,5-5V15c0-2.757-2.243-5-5-5Z"/><path d="M22.771,26.973c.448,.104,.917-.111,1.124-.526,.698-1.397,2.06-1.446,2.094-1.447,.058,.001,1.419,.05,2.117,1.447,.34,.678,1.449,.678,1.789,0,.299-.599,.718-.941,1.105-1.147v5.7c0,.554-.547,1-1,1s-1-.446-1-1v-1c0-.552-.447-1-1-1s-1,.448-1,1v1c0,1.598,1.402,3,3,3s3-1.402,3-3v-5.7c.388,.206,.806,.548,1.105,1.147,.34,.678,1.449,.678,1.789,0,.698-1.397,2.06-1.446,2.094-1.447,.058,.001,1.419,.05,2.117,1.447,.172,.344,.522,.553,.895,.553,.076,0,.153-.009,.229-.027,.451-.106,.771-.509,.771-.973,0-.087-.109-8.384-9-8.965v-.035c0-.552-.447-1-1-1s-1,.448-1,1v.035c-8.891,.581-9,8.879-9,8.965,0,.464,.319,.867,.771,.973Zm9.229-3.973c-.064,0-.993,.011-2,.56,.204-1.122,.738-2.565,2-4.074,1.262,1.51,1.797,2.952,2,4.074-1.007-.549-1.937-.56-2-.56Zm7.394,.284c-.747-.277-1.343-.284-1.394-.284-.063,0-.983,.012-1.983,.551-.171-1.214-.637-2.729-1.718-4.329,2.999,.624,4.421,2.457,5.094,4.062Zm-9.693-4.062c-1.081,1.6-1.547,3.115-1.718,4.329-1-.539-1.92-.551-1.983-.551-.051,0-.646,.006-1.394,.283,.674-1.604,2.096-3.437,5.094-4.061Z"/><path d="M25,38c0-.552-.447-1-1-1h-6c-.553,0-1,.448-1,1v6c0,.552,.447,1,1,1h6c.553,0,1-.448,1-1v-6Zm-2,5h-4v-4h4v4Z"/><path d="M24,47h-6c-.553,0-1,.448-1,1v6c0,.552,.447,1,1,1h6c.553,0,1-.448,1-1v-6c0-.552-.447-1-1-1Zm-1,6h-4v-4h4v4Z"/><rect x="27" y="38" width="4" height="2"/><rect x="43" y="38" width="4" height="2"/><rect x="33" y="38" width="8" height="2"/><rect x="39" y="42" width="8" height="2"/><rect x="27" y="42" width="10" height="2"/><rect x="27" y="48" width="4" height="2"/><rect x="43" y="48" width="4" height="2"/><rect x="33" y="48" width="8" height="2"/><rect x="39" y="52" width="8" height="2"/><rect x="27" y="52" width="10" height="2"/></g></g><text x="0" y="79" fill="#000000" font-size="5px" font-weight="bold" font-family="'Helvetica Neue', Helvetica, Arial-Unicode, Arial, Sans-serif">Created by tulpahn</text><text x="0" y="84" fill="#000000" font-size="5px" font-weight="bold" font-family="'Helvetica Neue', Helvetica, Arial-Unicode, Arial, Sans-serif">from the Noun Project</text></svg>