<?xml version="1.0" encoding="utf-8"?>
<!-- Svg Vector Icons : http://www.onlinewebfonts.com/icon -->
<!DOCTYPE svg PUBLIC "-//W3C//DTD SVG 1.1//EN" "http://www.w3.org/Graphics/SVG/1.1/DTD/svg11.dtd">
<svg version="1.1" xmlns="http://www.w3.org/2000/svg" xmlns:xlink="http://www.w3.org/1999/xlink" x="0px" y="0px" viewBox="0 0 256 256" enable-background="new 0 0 256 256" xml:space="preserve">
<metadata> Svg Vector Icons : http://www.onlinewebfonts.com/icon </metadata>
<g><g><g><path fill="#000000" d="M21.5,92.9c-5.6,5.6-10.5,10.8-10.9,11.5c-0.8,1.6-0.8,3.4,0,5.1c1,2,2.5,2.8,5.1,2.8h2.4l10.6-10.7c11.7-11.7,12.1-12.3,10.5-15.7c-1-2.1-2.8-3.1-5.4-3.1C31.9,82.8,31.7,82.9,21.5,92.9z"/><path fill="#000000" d="M69.1,91.1l0.1,5.1l8.8,0.1l8.8,0.1v2.6v2.6H63.1c-21,0-23.9,0.1-25.3,0.7c-3.1,1.5-3,0-3,35.6V170l1.6,1.6l1.6,1.6h65.8h65.8l1.5-1c0.8-0.6,12.9-13.8,26.9-29.3c14-15.5,25.5-28.2,25.7-28.2s2.5,2.4,5.2,5.4c5,5.6,6.5,6.7,8.6,6.7c1.6,0,3.8-1.1,4.6-2.4c0.9-1.2,0.9-4.4,0.1-5.8c-1.1-2-13.5-15.4-15-16.3c-1-0.5-2-0.7-2.9-0.6c-0.8,0.1-14.8,5.6-31.2,12.2c-16.3,6.6-29.9,11.9-30.2,11.8c-0.3-0.1-2.3-4.9-4.4-10.6c-2.2-5.8-4.3-10.9-4.7-11.4c-1.8-2.1-2.3-2.2-30-2.2H97.6v-2.6v-2.6h8h8v-5.2v-5.2H91.3H69L69.1,91.1z M150.1,124.3c2.4,6.4,4.6,12,4.8,12.4c0.8,1.2,2.9,2.3,4.5,2.3c0.8,0,10.3-3.5,21.2-8c10.8-4.4,19.6-7.7,19.5-7.5c-0.1,0.2-7.8,8.9-17.2,19.4l-17.1,19l-60.1,0l-60,0v-24.2c0-13.4,0.1-24.4,0.2-24.6c0.1-0.2,22.7-0.4,50.1-0.4h49.8L150.1,124.3z"/><path fill="#000000" d="M235.1,137.5c-4.2,5.7-6.7,12.5-6,16.2c0.5,2.4,2.7,4.8,5.3,5.7c2.7,0.9,3.7,0.9,6.4,0c5.9-2,6.9-7.7,2.8-16c-1.6-3.3-5.4-8.6-6.1-8.6C237.2,134.8,236.1,136,235.1,137.5z M241.1,146.3c1.8,3.9,2,7.4,0.4,8.7c-2,1.6-4.2,1.9-6.5,0.9c-2.3-1-3.1-2.6-2.7-5.2c0.3-1.8,2.4-6.5,4.1-9.2l0.9-1.5l1.2,1.7C239.2,142.5,240.3,144.7,241.1,146.3z"/></g></g></g>
</svg>