<?xml version="1.0" encoding="utf-8"?>
<!-- Svg Vector Icons : http://www.onlinewebfonts.com/icon -->
<!DOCTYPE svg PUBLIC "-//W3C//DTD SVG 1.1//EN" "http://www.w3.org/Graphics/SVG/1.1/DTD/svg11.dtd">
<svg version="1.1" xmlns="http://www.w3.org/2000/svg" xmlns:xlink="http://www.w3.org/1999/xlink" x="0px" y="0px" viewBox="0 0 256 256" enable-background="new 0 0 256 256" xml:space="preserve">
<metadata> Svg Vector Icons : http://www.onlinewebfonts.com/icon </metadata>
<g><g><path fill="#000000" d="M128,15.4c22.2,0,46.7,3.8,66.7,13.3c15.8,7.5,31.9,20.6,31.9,39.3v17.8c-0.2,7.6-2.6,14.3-7,20.1v78.1c0,37.6-45.9,56.5-91.7,56.5c-45.8,0-91.5-18.8-91.5-56.5V106c-4.5-5.9-6.8-12.5-7-20.1V68c0-18.6,16.1-31.7,31.9-39.3C81.3,19.2,105.8,15.4,128,15.4 M128,109.7c48.3,0,87.4-18.7,87.4-41.7S176.2,26.3,128,26.3S40.6,44.9,40.6,68S79.7,109.7,128,109.7 M128,33.6c7.2,0,13,2.8,13,6.2c0,3.4-5.8,6.2-13,6.2c-7.2,0-13-2.8-13-6.2C115,36.3,120.8,33.6,128,33.6 M179.2,47.7c4.5,0,8.8,1.1,11.2,3.1c3.6,3,1.5,6.7-4.7,8.5c-2,0.6-4.3,0.8-6.5,0.8c-4.5,0-8.8-1.1-11.2-3.1c-3.6-3-1.5-6.7,4.7-8.5C174.8,48,177,47.7,179.2,47.7 M76.7,47.7c2.2,0,4.4,0.3,6.5,0.8c6.2,1.7,8.3,5.5,4.7,8.5c-2.4,2-6.7,3.1-11.2,3.1c-2.2,0-4.4-0.3-6.5-0.8c-6.2-1.7-8.3-5.5-4.7-8.5C67.9,48.8,72.2,47.7,76.7,47.7 M128,52.6c17.8,0,32.2,6.9,32.2,15.4c0,8.5-14.4,15.4-32.2,15.4c-17.8,0-32.2-6.9-32.2-15.4C95.8,59.5,110.2,52.6,128,52.6 M179.2,75.9c2.2,0,4.4,0.3,6.5,0.8c6.2,1.7,8.3,5.5,4.7,8.5c-2.4,2-6.7,3.1-11.2,3.1c-2.2,0-4.4-0.3-6.5-0.8c-6.2-1.7-8.3-5.5-4.7-8.5C170.4,77,174.8,75.9,179.2,75.9 M76.7,75.9c4.5,0,8.8,1.1,11.2,3.1c3.6,3,1.4,6.7-4.7,8.5c-2,0.6-4.3,0.8-6.5,0.8c-4.5,0-8.8-1.1-11.2-3.1c-3.6-3-1.5-6.7,4.7-8.5C72.3,76.2,74.5,75.9,76.7,75.9 M128,90c7.2,0,13,2.8,13,6.2c0,3.4-5.8,6.2-13,6.2c-7.2,0-13-2.8-13-6.2C115,92.8,120.8,90,128,90 M128,10c-12.1,0-23.9,1.1-35.1,3.2c-12.6,2.4-24,5.9-33.9,10.7c-9.6,4.6-17.7,10.3-23.5,16.7C27.8,48.8,24,58.1,24,68v17.8v0.1V86c0.2,8.1,2.6,15.4,7,21.7v76.3c0,10.2,3,19.6,8.9,27.9c5.3,7.5,12.9,14,22.5,19.3c8.8,4.8,19.2,8.6,30.8,11.1c11.1,2.4,22.8,3.7,34.8,3.7c12,0,23.7-1.2,34.8-3.7c11.6-2.6,22-6.3,30.8-11.1c9.7-5.3,17.3-11.8,22.6-19.3c5.9-8.3,8.9-17.7,8.9-27.8v-76.3c4.4-6.4,6.8-13.7,7-21.8v-0.1v-0.1V68c0-9.9-3.9-19.2-11.4-27.5c-5.8-6.4-14-12.1-23.5-16.7c-9.9-4.7-21.3-8.3-33.9-10.7C151.9,11.1,140.1,10,128,10L128,10z M140.7,48.4c3.6-2.1,5.7-5.2,5.7-8.6c0-2.8-1.4-5.5-4-7.5c17,1.4,32.6,5.2,45,11.1c-2.5-0.7-5.2-1.1-8.1-1.1c-2.7,0-5.5,0.4-7.9,1c-2.5,0.7-4.6,1.7-6.3,2.9c-2.1,1.6-3.5,3.6-4,5.9c-0.7,3.3,0.6,6.6,3.5,9c3.3,2.7,8.7,4.3,14.7,4.3c2.7,0,5.5-0.4,7.9-1c2.5-0.7,4.6-1.7,6.3-2.9c2.1-1.6,3.5-3.6,4-5.9c0.6-3-0.3-5.9-2.6-8.2c3.9,2.5,7.2,5.2,9.7,7.9c3.7,4.1,5.5,8.4,5.5,12.6c0,4.3-1.9,8.5-5.5,12.6c-2.5,2.8-5.8,5.5-9.7,7.9c2.3-2.3,3.3-5.3,2.6-8.2c-0.5-2.2-1.9-4.3-4-5.9c-1.7-1.3-3.8-2.2-6.3-2.9c-2.4-0.7-5.2-1-7.9-1c-6,0-11.4,1.6-14.7,4.3c-2.9,2.4-4.2,5.7-3.5,9c0.5,2.2,1.9,4.3,4,5.9c1.7,1.3,3.8,2.2,6.3,2.9c2.4,0.7,5.2,1,7.9,1c2.9,0,5.7-0.4,8.1-1.1c-12.4,5.9-28,9.7-45,11.1c2.6-2,4-4.6,4-7.5c0-3.4-2-6.5-5.7-8.6c4.6-0.8,8.8-2.2,12.4-3.9c8.1-3.9,12.5-9.4,12.5-15.7c0-6.3-4.4-11.9-12.5-15.7C149.4,50.5,145.2,49.2,140.7,48.4L140.7,48.4z M68.6,43.4c12.4-5.9,28-9.7,45-11.1c-2.6,2-4,4.6-4,7.5c0,3.4,2,6.5,5.7,8.6c-4.6,0.8-8.8,2.2-12.4,3.9c-8.1,3.9-12.5,9.4-12.5,15.7c0,6.3,4.4,11.9,12.5,15.7c3.6,1.7,7.8,3,12.4,3.9c-3.6,2.1-5.7,5.2-5.7,8.6c0,2.8,1.4,5.5,4,7.5c-17-1.4-32.6-5.2-45-11.1c2.5,0.7,5.2,1.1,8.1,1.1c2.7,0,5.5-0.4,7.9-1c2.5-0.7,4.6-1.7,6.3-2.9c2.1-1.6,3.5-3.6,4-5.9c0.7-3.3-0.6-6.6-3.5-9c-3.3-2.8-8.7-4.3-14.7-4.3c-2.7,0-5.5,0.4-7.9,1c-2.5,0.7-4.6,1.7-6.3,2.9c-2.1,1.6-3.5,3.6-4,5.9c-0.6,3,0.3,5.9,2.6,8.2c-3.9-2.5-7.2-5.2-9.7-7.9c-3.7-4.1-5.5-8.4-5.5-12.6c0-4.3,1.9-8.5,5.5-12.6c2.5-2.8,5.8-5.5,9.7-7.9c-2.3,2.3-3.3,5.3-2.6,8.2c0.5,2.2,1.9,4.3,4,5.9c1.7,1.3,3.8,2.2,6.3,2.9c2.4,0.7,5.2,1,7.9,1c6,0,11.3-1.6,14.7-4.3c2.9-2.4,4.2-5.7,3.5-9c-0.5-2.2-1.9-4.3-4-5.9c-1.7-1.3-3.8-2.2-6.3-2.9c-2.4-0.7-5.2-1-7.9-1C73.8,42.3,71,42.7,68.6,43.4L68.6,43.4z"/></g></g>
</svg>