<svg xmlns="http://www.w3.org/2000/svg" data-name="Layer 1" viewBox="0 0 128 160" x="0px" y="0px"><title>Artboard 1</title><path d="M83,83V77a4,4,0,0,0-4-4H77.85l-.44-2.66a4,4,0,0,0-2.4-3V54.91a5.54,5.54,0,0,0-.59-2.52l-.12-.22a3.92,3.92,0,0,0-.47-.63.8.8,0,0,0,.13-.78A2,2,0,0,0,75,49V47a2,2,0,0,0-1.05-1.75.65.65,0,0,0,0-.5A2,2,0,0,0,75,43V41a2,2,0,0,0-1.05-1.75.65.65,0,0,0,0-.5A2,2,0,0,0,75,37V35a2,2,0,0,0-1.05-1.75.65.65,0,0,0,0-.5A2,2,0,0,0,75,31V29a2,2,0,0,0-1.05-1.75.65.65,0,0,0,0-.5A2,2,0,0,0,75,25V22.8a4,4,0,0,0-.38-1.71l-.17-.37A3,3,0,0,0,72,19V16a1,1,0,0,0-1-1H67V5a2,2,0,0,0-2-2H63a2,2,0,0,0-2,2V15H57a1,1,0,0,0-1,1v3a3,3,0,0,0-2.44,1.73l-.19.43A4,4,0,0,0,53,22.84V25a2,2,0,0,0,1.05,1.75.65.65,0,0,0,0,.5A2,2,0,0,0,53,29v2a2,2,0,0,0,1.05,1.75.65.65,0,0,0,0,.5A2,2,0,0,0,53,35v2a2,2,0,0,0,1.05,1.75.65.65,0,0,0,0,.5A2,2,0,0,0,53,41v2a2,2,0,0,0,1.05,1.75.65.65,0,0,0,0,.5A2,2,0,0,0,53,47v2a2,2,0,0,0,1,1.76A1,1,0,0,0,54,51a1,1,0,0,0,.18.54,3.88,3.88,0,0,0-.47.63l-.12.22A5.54,5.54,0,0,0,53,54.91V67.32a4,4,0,0,0-2.4,3L50.15,73H49a4,4,0,0,0-4,4v6a4,4,0,0,0,2.43,3.68L47,90.77A3,3,0,0,0,46,93v7a3,3,0,0,0,3,3h4v13a3,3,0,0,0,3,3h4a1,1,0,0,0,1,1h1v1a1,1,0,0,0,1,1h2a1,1,0,0,0,1-1v-1h1a1,1,0,0,0,1-1h3v1a3,3,0,0,1-3,3H64a1,1,0,0,0,0,2h4a5,5,0,0,0,5-5v-1.18A3,3,0,0,0,75,116V103h4a3,3,0,0,0,3-3V93a3,3,0,0,0-1-2.23l-.41-4.09A4,4,0,0,0,83,83Zm-4.11,7H49.1l.3-3H78.59ZM52.37,85l.93-.92a1,1,0,0,1,1.4,0,1,1,0,0,0,.21.16l1.35.76Zm19.38,0,1.35-.76a1,1,0,0,0,.21-.16,1,1,0,0,1,1.4,0l.93.92Zm-.46-57A2,2,0,0,0,73,29v2a2,2,0,0,0-1.72,1H56.72A2,2,0,0,0,55,31V29a2,2,0,0,0,1.72-1Zm0,6A2,2,0,0,0,73,35v2a2,2,0,0,0-1.72,1H56.72A2,2,0,0,0,55,37V35a2,2,0,0,0,1.72-1Zm0,6A2,2,0,0,0,73,41v2a2,2,0,0,0-1.72,1H56.72A2,2,0,0,0,55,43V41a2,2,0,0,0,1.72-1Zm0,6A2,2,0,0,0,73,47v2a2,2,0,0,0-1.72,1H56.72A2,2,0,0,0,55,49V47a2,2,0,0,0,1.72-1ZM55,54.91a3.53,3.53,0,0,1,.36-1.6l.06-.11a2.1,2.1,0,0,1,.61-.64,2.68,2.68,0,0,0,.59-.55H71.37a2.67,2.67,0,0,0,.59.55,2.08,2.08,0,0,1,.61.63l.06.12a3.53,3.53,0,0,1,.36,1.6V67H55Zm10-43.3a4.83,4.83,0,0,0-1.22.45,4.31,4.31,0,0,1-.78.32v-1a4.83,4.83,0,0,0,1.22-.45,4.31,4.31,0,0,1,.78-.32Zm0-2a4.83,4.83,0,0,0-1.22.45,4.31,4.31,0,0,1-.78.32v-1a4.83,4.83,0,0,0,1.22-.45A4.31,4.31,0,0,1,65,8.63Zm-2,3.79a4.83,4.83,0,0,0,1.22-.45,4.31,4.31,0,0,1,.78-.32v1a4.83,4.83,0,0,0-1.22.45,4.31,4.31,0,0,1-.78.32Zm2-5.79a4.83,4.83,0,0,0-1.22.45,4.31,4.31,0,0,1-.78.32v-1a4.83,4.83,0,0,0,1.22-.45A4.31,4.31,0,0,1,65,6.63Zm-.78,7.34a4.31,4.31,0,0,1,.78-.32V15h-.89ZM65,5v.61a4.83,4.83,0,0,0-1.22.45,4.31,4.31,0,0,1-.78.32V5ZM58,17H70v2H58Zm-3,5.84a2,2,0,0,1,.18-.83l.19-.42a1,1,0,0,1,.91-.58H71.73a1,1,0,0,1,.91.58l.17.37a2,2,0,0,1,.19.85V25a2,2,0,0,0-1.72,1H56.72A2,2,0,0,0,55,25ZM52.57,70.67a2,2,0,0,1,2-1.67H73.46a2,2,0,0,1,2,1.67L75.82,73H52.18ZM75.63,75l-.93.92a1,1,0,0,1-1.4,0,1,1,0,0,0-.21-.16L71.74,75ZM56.26,75l-1.35.76a1,1,0,0,0-.21.16,1,1,0,0,1-1.4,0L52.37,75ZM47,77a2,2,0,0,1,2-2h.51l2.39,2.34a3,3,0,0,0,4.09.1L60.34,75h7.31L72,77.44a3,3,0,0,0,4.09-.1L78.49,75H79a2,2,0,0,1,2,2v6a2,2,0,0,1-2,2h-.51L76.1,82.66a3,3,0,0,0-4.09-.1L67.66,85H60.34L56,82.56a3,3,0,0,0-4.09.1L49.51,85H49a2,2,0,0,1-2-2Zm25,40H64.06a61.22,61.22,0,0,1,8.78-.5A1,1,0,0,1,72,117Zm-8.06-7a61.9,61.9,0,0,1-8.94.5v-1a62.68,62.68,0,0,0,9.06-.5,61.9,61.9,0,0,1,8.94-.5v1A62.68,62.68,0,0,0,63.94,110Zm9.06.5v1a62.68,62.68,0,0,0-9.06.5,61.9,61.9,0,0,1-8.94.5v-1a62.68,62.68,0,0,0,9.06-.5A61.9,61.9,0,0,1,73,110.5Zm-18,3a62.68,62.68,0,0,0,9.06-.5,61.9,61.9,0,0,1,8.94-.5v1a62.68,62.68,0,0,0-9.06.5,61.9,61.9,0,0,1-8.94.5Zm18-6a62.68,62.68,0,0,0-9.06.5,61.9,61.9,0,0,1-8.94.5v-1a62.68,62.68,0,0,0,9.06-.5,61.9,61.9,0,0,1,8.94-.5ZM63.94,116a61.23,61.23,0,0,1-8.78.5A1,1,0,0,1,55,116v-.5a62.68,62.68,0,0,0,9.06-.5,61.9,61.9,0,0,1,8.94-.5v1A62.68,62.68,0,0,0,63.94,116ZM73,105.5a62.68,62.68,0,0,0-9.06.5,61.9,61.9,0,0,1-8.94.5v-1a62.68,62.68,0,0,0,9.06-.5,61.9,61.9,0,0,1,8.94-.5Zm0-2a62.68,62.68,0,0,0-9.06.5,61.9,61.9,0,0,1-8.94.5v-1a62.71,62.71,0,0,0,9-.5h9Zm7-3.5a1,1,0,0,1-1,1H49a1,1,0,0,1-1-1V93a1,1,0,0,1,1-1H79a1,1,0,0,1,1,1Z"/><path d="M62,56a3,3,0,0,0-3,3v2a3,3,0,0,0,6,0V59A3,3,0,0,0,62,56Zm1,5a1,1,0,0,1-2,0V59a1,1,0,0,1,2,0Z"/><path d="M68,56a1,1,0,0,0-1,1v6a1,1,0,0,0,2,0V57A1,1,0,0,0,68,56Z"/><path d="M54.16,94.53a.5.5,0,0,0-.63.32l-1,3a.5.5,0,0,0,.32.63l.16,0a.5.5,0,0,0,.47-.34l1-3A.5.5,0,0,0,54.16,94.53Z"/><path d="M57.16,94.53a.5.5,0,0,0-.63.32l-1,3a.5.5,0,0,0,.32.63l.16,0a.5.5,0,0,0,.47-.34l1-3A.5.5,0,0,0,57.16,94.53Z"/><path d="M60.16,94.53a.5.5,0,0,0-.63.32l-1,3a.5.5,0,0,0,.32.63l.16,0a.5.5,0,0,0,.47-.34l1-3A.5.5,0,0,0,60.16,94.53Z"/><path d="M69.16,94.53a.5.5,0,0,0-.63.32l-1,3a.5.5,0,0,0,.32.63l.16,0a.5.5,0,0,0,.47-.34l1-3A.5.5,0,0,0,69.16,94.53Z"/><path d="M72.16,94.53a.5.5,0,0,0-.63.32l-1,3a.5.5,0,0,0,.32.63l.16,0a.5.5,0,0,0,.47-.34l1-3A.5.5,0,0,0,72.16,94.53Z"/><path d="M75.16,94.53a.5.5,0,0,0-.63.32l-1,3a.5.5,0,0,0,.32.63l.16,0a.5.5,0,0,0,.47-.34l1-3A.5.5,0,0,0,75.16,94.53Z"/><text x="0" y="143" fill="#000000" font-size="5px" font-weight="bold" font-family="'Helvetica Neue', Helvetica, Arial-Unicode, Arial, Sans-serif">Created by Yoyon Pujiyono</text><text x="0" y="148" fill="#000000" font-size="5px" font-weight="bold" font-family="'Helvetica Neue', Helvetica, Arial-Unicode, Arial, Sans-serif">from the Noun Project</text></svg>