<svg xmlns="http://www.w3.org/2000/svg" data-name="Layer 1" viewBox="0 0 128 160" x="0px" y="0px"><title>TRANSPORTATION. final</title><path d="M81.45.73H46.55C23.64.73,5,29.11,5,64s18.64,63.27,41.55,63.27h34.9C104.36,127.27,123,98.89,123,64S104.36.73,81.45.73ZM47.89,123.27H46.55a25.88,25.88,0,0,1-13.16-3.76h3.24a51.29,51.29,0,0,1-3.55-4H28a44.51,44.51,0,0,1-6.67-7.63h6.56c-.75-1.3-1.47-2.63-2.14-4h-7a61.44,61.44,0,0,1-3.74-7.63h7.42c-.48-1.31-.93-2.64-1.35-4H13.55a77.07,77.07,0,0,1-2.21-7.64h7.8c-.28-1.32-.54-2.65-.76-4H10.5c-.46-2.48-.82-5-1.07-7.63h8c-.11-1.32-.2-2.66-.27-4h-8C9,67.34,9,65.68,9,64c0-.89,0-1.77,0-2.65h8c0-1.34.1-2.67.19-4h-8q.29-3.9.87-7.64H18c.19-1.35.42-2.68.67-4H10.83c.54-2.63,1.2-5.18,2-7.63h7.66c.38-1.35.78-2.69,1.22-4H14.14a68.11,68.11,0,0,1,3.37-7.63h7.13c.62-1.37,1.27-2.7,2-4H19.8a48.64,48.64,0,0,1,5.82-7.63h5.69c1-1.41,2.08-2.75,3.17-4H30A28.18,28.18,0,0,1,42.61,5.06a23.94,23.94,0,0,1,3.94-.33H48C32.26,13.72,21,36.89,21,64s11.26,50.28,27,59.27Zm14.66.05a29.63,29.63,0,0,1-17.87-7.25c-6.09-5.16-10.29-12.23-13.32-19.61A87.3,87.3,0,0,1,29.69,36.1a64.81,64.81,0,0,1,6.78-14.4A42.13,42.13,0,0,1,47.1,10.18,29.24,29.24,0,0,1,63.45,4.59a28.89,28.89,0,0,1,3.22.09,26.07,26.07,0,0,1-13,6.85c-2.33.47-5.18.95-6,3.17l7.51.16c-2.52,2.38-3.17,7-6.56,7.73a9.26,9.26,0,0,1-3.17-.17c-2.85-.4-6.56.59-6.91,3.44a31.63,31.63,0,0,0,9.35.61L44.75,34l-10.36.07-1.25,3.59,10.31.39L41.6,45.67l-10.67.08-.74,3.92,10.7.08-.81,7.56-10.8.08-.2,3.92,10.8.08L40,68.94,29.19,69l.29,3.92L40.27,73l1,7.55-10.67.08.85,3.92,10.63.08,2.07,7.56-10.38.08,1.57,3.93,10.26.07,3.45,7.56-9.58.06c.12,2.32,2.81,3.6,5.12,3.78s4.81-.18,6.83,1c2.6,1.49,3.41,4.95,5.72,6.86l-6.7.24,16.35,7.32A23,23,0,0,1,62.55,123.32Zm18.9-.05a26.46,26.46,0,0,1-16.24-5.86C52.26,107.53,43.9,86.57,43.9,64s8.36-43.53,21.31-53.41A26.46,26.46,0,0,1,81.45,4.73C102.15,4.73,119,31.32,119,64S102.15,123.27,81.45,123.27Z"/><path d="M81.59,111.66c-16.22,0-29.41-20.93-29.41-46.66a2,2,0,0,0-4,0c0,27.93,15,50.66,33.41,50.66a2,2,0,0,0,0-4Z"/><path d="M81.59,14.34a2,2,0,0,0,0,4C97.8,18.34,111,39.27,111,65a2,2,0,0,0,4,0C115,37.07,100,14.34,81.59,14.34Z"/><path d="M81.59,51.52c-5.28,0-9.42,5.92-9.42,13.48s4.14,13.48,9.42,13.48S91,72.56,91,65,86.86,51.52,81.59,51.52Zm0,23c-2.89,0-5.42-4.43-5.42-9.48s2.53-9.48,5.42-9.48S87,60,87,65,84.47,74.48,81.59,74.48Z"/><path d="M81.59,27.28C67.77,27.28,56.53,44.2,56.53,65s11.24,37.72,25.06,37.72,25-16.92,25-37.72S95.4,27.28,81.59,27.28ZM78.7,31.6,78,35.1c-2.1,9.8-7.85,16.38-14.32,16.38H62.31C65.19,40.95,71.34,33.22,78.7,31.6ZM66.52,88.5h0c-3.71-6.08-6-14.35-6-23.49,0-1.31,0-2.61.14-3.88h0l.1.11C66.37,67.41,68.68,78.36,66.52,88.5ZM91.3,94.91a15,15,0,0,1-9.71,3.81,14.83,14.83,0,0,1-9.1-3.31h0l1.06-1.17c2.55-2.82,5.52-4.3,8.58-4.3h0c3.06,0,6,1.49,8.58,4.31l.6.66ZM102.64,65a46.74,46.74,0,0,1-5.18,22.1c-1.58-9.16.41-18.77,5.11-24.79C102.62,63.2,102.64,64.09,102.64,65Zm-.86-9.52c.09.46.17.93.24,1.4l-1.51,1.67C94.08,65.64,91.39,78,93.82,89.36l.52,2.45h0l-.21.26h0l-.46-.51c-3.33-3.68-7.32-5.62-11.54-5.62h0c-4.22,0-8.21,1.94-11.54,5.62l-1,1.06a2,2,0,0,0,.24-.6l.57-2.65c2.43-11.34-.26-23.73-6.69-30.83l-2-2.21A2,2,0,0,0,61.3,56h0a4.37,4.37,0,0,1,.09-.5h2.24c8.4,0,15.73-7.85,18.23-19.54l.26-1.23.26,1.23c2.5,11.69,9.83,19.54,18.23,19.54h1.16Zm-1.16-4c-6.47,0-12.23-6.58-14.32-16.38l-.68-3.19h0C92.47,34,98.14,41.5,100.86,51.48Z"/><text x="0" y="143" fill="#000000" font-size="5px" font-weight="bold" font-family="'Helvetica Neue', Helvetica, Arial-Unicode, Arial, Sans-serif">Created by WEBTECHOPS LLP</text><text x="0" y="148" fill="#000000" font-size="5px" font-weight="bold" font-family="'Helvetica Neue', Helvetica, Arial-Unicode, Arial, Sans-serif">from the Noun Project</text></svg>