<svg xmlns="http://www.w3.org/2000/svg" viewBox="0 0 64 80" x="0px" y="0px"><g data-name="Layer 39"><path d="M50,5H16A10.9916,10.9916,0,0,0,8.1779,23.7222c.0055.0064.0068.0147.0125.021L35.9229,54.207l.0131.0088A12.9927,12.9927,0,0,0,59,46V14A9.01,9.01,0,0,0,50,5Zm7,9a7,7,0,1,1-7-7A7.0081,7.0081,0,0,1,57,14ZM16,7a9,9,0,1,1-9,9A9.01,9.01,0,0,1,16,7ZM46,57A11,11,0,1,1,57,46,11.0125,11.0125,0,0,1,46,57ZM57,39.1039a12.9721,12.9721,0,0,0-23.79,9.1555L13.6165,26.7324A10.9886,10.9886,0,0,0,22.3047,7H44.3556A8.9932,8.9932,0,1,0,57,19.6444Z"/><path d="M46,14a4,4,0,1,0,4-4A4.0042,4.0042,0,0,0,46,14Zm6,0a2,2,0,1,1-2-2A2.0023,2.0023,0,0,1,52,14Z"/><path d="M16,23a7,7,0,1,0-7-7A7.0078,7.0078,0,0,0,16,23Zm0-12a5,5,0,1,1-5,5A5.0059,5.0059,0,0,1,16,11Z"/><path d="M53,45H51.91a5.96,5.96,0,0,0-1.0246-2.4711l.7721-.7721a1,1,0,0,0-1.414-1.414l-.7721.7721A5.96,5.96,0,0,0,47,40.09V39a1,1,0,0,0-2,0v1.09a5.96,5.96,0,0,0-2.4711,1.0246l-.7721-.7721a1,1,0,0,0-1.414,1.414l.7721.7721A5.96,5.96,0,0,0,40.09,45H39a1,1,0,0,0,0,2h1.09a5.96,5.96,0,0,0,1.0246,2.4711l-.7721.7721a1,1,0,1,0,1.414,1.414l.7721-.7721A5.96,5.96,0,0,0,45,51.91V53a1,1,0,0,0,2,0V51.91a5.96,5.96,0,0,0,2.4711-1.0246l.7721.7721a1,1,0,0,0,1.414-1.414l-.7721-.7721A5.96,5.96,0,0,0,51.91,47H53a1,1,0,0,0,0-2Zm-7,5a4,4,0,1,1,4-4A4.0039,4.0039,0,0,1,46,50Z"/><circle cx="46" cy="46" r="2"/><path d="M16,19a3,3,0,1,0-3-3A3.0033,3.0033,0,0,0,16,19Zm0-4a1,1,0,1,1-1,1A1.0013,1.0013,0,0,1,16,15Z"/></g><text x="0" y="79" fill="#000000" font-size="5px" font-weight="bold" font-family="'Helvetica Neue', Helvetica, Arial-Unicode, Arial, Sans-serif">Created by Yosua Bungaran</text><text x="0" y="84" fill="#000000" font-size="5px" font-weight="bold" font-family="'Helvetica Neue', Helvetica, Arial-Unicode, Arial, Sans-serif">from the Noun Project</text></svg>